<svg width="288" height="469" fill="none" xmlns="http://www.w3.org/2000/svg"><path fill-rule="evenodd" clip-rule="evenodd" d="M0 0h288v469h-33v-17h15V39h-58V6h-74v33H93V6H29v33H18v413h9v17H0V0zm179 452h-24v17h24v-17zm-100 0h24v17H79v-17z" fill="#666" fill-opacity=".75"/><path d="M112.828 236v-7.336h-1.336v-1.117h1.336v-.719c0-.943.268-1.677.805-2.203.541-.526 1.305-.789 2.289-.789.583 0 1.32.159 2.211.476l-.242 1.219c-.651-.26-1.271-.39-1.86-.39-.62 0-1.067.14-1.343.421-.271.277-.407.693-.407 1.25v.735h1.727v1.117h-1.727V236h-1.453zm6.024 0h-1.454v-8.453h1.454V236zm6.437-7.156a4.276 4.276 0 00-.711-.055c-.948 0-1.591.404-1.93 1.211v6h-1.445v-8.453h1.406l.024.976c.474-.755 1.146-1.132 2.015-1.132.282 0 .495.036.641.109v1.344zm6.258 4.914c0-.391-.149-.693-.445-.906-.292-.219-.805-.407-1.54-.563-.729-.156-1.309-.344-1.742-.562-.427-.219-.744-.48-.953-.782-.203-.302-.305-.661-.305-1.078 0-.693.292-1.278.876-1.758.588-.479 1.338-.718 2.25-.718.958 0 1.734.247 2.328.742.599.495.898 1.127.898 1.898h-1.453c0-.396-.169-.737-.508-1.023-.333-.287-.755-.43-1.265-.43-.527 0-.938.115-1.235.344a1.081 1.081 0 00-.445.898c0 .349.138.612.414.789.276.177.773.347 1.492.508.724.162 1.31.354 1.758.578.448.224.779.495.992.813.219.312.328.695.328 1.148 0 .755-.302 1.362-.906 1.821-.604.453-1.388.679-2.352.679-.677 0-1.276-.12-1.796-.359-.521-.24-.93-.573-1.227-1a2.452 2.452 0 01-.438-1.399h1.446c.026.485.219.87.578 1.157.364.281.844.422 1.437.422.547 0 .985-.11 1.313-.329.333-.224.5-.52.5-.89zm5.289-8.258v2.047h1.578v1.117h-1.578v5.242c0 .339.07.594.211.766.141.167.38.25.719.25.166 0 .395-.031.687-.094V236c-.38.104-.75.156-1.109.156-.646 0-1.133-.195-1.461-.586-.328-.39-.492-.945-.492-1.664v-5.242h-1.539v-1.117h1.539V225.5h1.445zm12.523-.273c-.645-.105-1.166-.157-1.562-.157-1.042 0-1.563.547-1.563 1.641v.836h1.805v1.117h-1.805V236h-1.445v-7.336h-1.336v-1.117h1.336v-.922c.005-.901.258-1.591.758-2.07.5-.479 1.211-.719 2.133-.719.526 0 1.567.159 3.125.476V236h-1.446v-10.773zm3.43 6.468c0-.828.162-1.573.484-2.234.329-.662.782-1.172 1.36-1.531.583-.36 1.247-.539 1.992-.539 1.151 0 2.081.398 2.789 1.195.714.797 1.07 1.857 1.07 3.18v.101c0 .823-.158 1.563-.476 2.219a3.557 3.557 0 01-1.352 1.523c-.583.365-1.255.547-2.015.547-1.146 0-2.076-.398-2.789-1.195-.709-.797-1.063-1.852-1.063-3.164v-.102zm1.453.172c0 .938.216 1.69.649 2.258.437.568 1.02.852 1.75.852.734 0 1.317-.287 1.75-.86.432-.578.648-1.385.648-2.422 0-.927-.221-1.677-.664-2.25-.437-.578-1.021-.867-1.75-.867-.714 0-1.289.284-1.727.852-.437.567-.656 1.38-.656 2.437zm7.672-.172c0-.828.162-1.573.484-2.234.329-.662.782-1.172 1.36-1.531.583-.36 1.247-.539 1.992-.539 1.151 0 2.081.398 2.789 1.195.714.797 1.07 1.857 1.07 3.18v.101c0 .823-.158 1.563-.476 2.219a3.557 3.557 0 01-1.352 1.523c-.583.365-1.255.547-2.015.547-1.146 0-2.076-.398-2.789-1.195-.709-.797-1.063-1.852-1.063-3.164v-.102zm1.453.172c0 .938.216 1.69.649 2.258.437.568 1.02.852 1.75.852.734 0 1.317-.287 1.75-.86.432-.578.648-1.385.648-2.422 0-.927-.221-1.677-.664-2.25-.438-.578-1.021-.867-1.75-.867-.714 0-1.289.284-1.727.852-.437.567-.656 1.38-.656 2.437zm12.141-3.023a4.276 4.276 0 00-.711-.055c-.948 0-1.591.404-1.93 1.211v6h-1.445v-8.453h1.406l.024.976c.474-.755 1.145-1.132 2.015-1.132.281 0 .495.036.641.109v1.344z" fill="#666"/></svg>