<svg width="288" height="469" fill="none" xmlns="http://www.w3.org/2000/svg"><path fill-rule="evenodd" clip-rule="evenodd" d="M0 0h288v469h-33v-17h15V39h-58V6h-74v33H93V6H29v33H18v413h161v17H0V0z" fill="#666" fill-opacity=".75"/><path d="M105.102 233.758c0-.391-.149-.693-.446-.906-.291-.219-.804-.407-1.539-.563-.729-.156-1.31-.344-1.742-.562-.427-.219-.745-.48-.953-.782-.203-.302-.305-.661-.305-1.078 0-.693.292-1.278.875-1.758.589-.479 1.339-.718 2.25-.718.959 0 1.735.247 2.328.742.599.495.899 1.127.899 1.898h-1.453c0-.396-.17-.737-.508-1.023-.334-.287-.755-.43-1.266-.43-.526 0-.937.115-1.234.344a1.082 1.082 0 00-.446.898c0 .349.139.612.415.789.276.177.773.347 1.492.508.724.162 1.31.354 1.758.578.447.224.778.495.992.813.219.312.328.695.328 1.148 0 .755-.302 1.362-.906 1.821-.605.453-1.388.679-2.352.679-.677 0-1.276-.12-1.797-.359-.521-.24-.93-.573-1.226-1a2.452 2.452 0 01-.438-1.399h1.445c.026.485.219.87.579 1.157.364.281.843.422 1.437.422.547 0 .984-.11 1.313-.329.333-.224.5-.52.5-.89zm6.836 2.398c-1.146 0-2.079-.375-2.797-1.125-.719-.755-1.079-1.763-1.079-3.023v-.266c0-.838.159-1.586.477-2.242.323-.661.771-1.177 1.344-1.547a3.38 3.38 0 011.875-.562c1.099 0 1.953.362 2.562 1.086.61.724.914 1.76.914 3.109v.602h-5.726c.021.833.263 1.507.726 2.023.469.51 1.063.766 1.782.766.51 0 .942-.105 1.296-.313.355-.208.665-.484.93-.828l.883.687c-.708 1.089-1.771 1.633-3.187 1.633zm-.18-7.578c-.584 0-1.073.214-1.469.641-.396.422-.641 1.015-.734 1.781h4.234v-.109c-.042-.735-.24-1.302-.594-1.703-.354-.407-.833-.61-1.437-.61zm8.547 6.399c.515 0 .966-.157 1.351-.469.386-.313.599-.703.641-1.172h1.367c-.026.484-.193.945-.5 1.383a3.297 3.297 0 01-1.234 1.047c-.511.26-1.052.39-1.625.39-1.151 0-2.068-.383-2.75-1.148-.677-.771-1.016-1.823-1.016-3.156v-.243c0-.823.151-1.554.453-2.195a3.46 3.46 0 011.297-1.492c.568-.354 1.237-.531 2.008-.531.948 0 1.734.283 2.359.851.63.568.966 1.305 1.008 2.211h-1.367c-.042-.547-.25-.995-.625-1.344-.37-.354-.828-.531-1.375-.531-.735 0-1.305.266-1.711.797-.401.526-.602 1.289-.602 2.289v.274c0 .973.201 1.723.602 2.25.401.526.974.789 1.719.789zm4.601-3.282c0-.828.162-1.573.485-2.234.328-.662.781-1.172 1.359-1.531.583-.36 1.247-.539 1.992-.539 1.151 0 2.081.398 2.789 1.195.714.797 1.071 1.857 1.071 3.18v.101c0 .823-.159 1.563-.477 2.219a3.557 3.557 0 01-1.352 1.523c-.583.365-1.255.547-2.015.547-1.146 0-2.076-.398-2.789-1.195-.709-.797-1.063-1.852-1.063-3.164v-.102zm1.453.172c0 .938.217 1.69.649 2.258.437.568 1.021.852 1.75.852.734 0 1.318-.287 1.75-.86.432-.578.648-1.385.648-2.422 0-.927-.221-1.677-.664-2.25-.437-.578-1.021-.867-1.75-.867-.713 0-1.289.284-1.726.852-.438.567-.657 1.38-.657 2.437zm9.422-4.32l.047 1.062c.646-.812 1.49-1.218 2.531-1.218 1.787 0 2.688 1.007 2.703 3.023V236h-1.445v-5.594c-.005-.609-.146-1.06-.422-1.351-.271-.292-.695-.438-1.273-.438-.469 0-.88.125-1.234.375-.355.25-.631.578-.829.985V236h-1.445v-8.453h1.367zm7.11 4.156c0-1.297.307-2.338.921-3.125.615-.792 1.42-1.187 2.415-1.187.989 0 1.773.338 2.351 1.015V224h1.445v12h-1.328l-.07-.906c-.578.708-1.383 1.062-2.414 1.062-.979 0-1.779-.401-2.399-1.203-.614-.802-.921-1.849-.921-3.141v-.109zm1.445.164c0 .959.198 1.709.594 2.25.396.542.942.813 1.64.813.917 0 1.586-.412 2.008-1.235v-3.883c-.432-.796-1.096-1.195-1.992-1.195-.708 0-1.26.274-1.656.821-.396.546-.594 1.356-.594 2.429zm17.187-6.64c-.645-.105-1.166-.157-1.562-.157-1.042 0-1.563.547-1.563 1.641v.836h1.805v1.117h-1.805V236h-1.445v-7.336h-1.336v-1.117h1.336v-.922c.005-.901.258-1.591.758-2.07.5-.479 1.211-.719 2.133-.719.526 0 1.567.159 3.125.476V236h-1.446v-10.773zm3.43 6.468c0-.828.162-1.573.485-2.234.328-.662.781-1.172 1.359-1.531.583-.36 1.247-.539 1.992-.539 1.151 0 2.081.398 2.789 1.195.714.797 1.07 1.857 1.07 3.18v.101c0 .823-.158 1.563-.476 2.219a3.557 3.557 0 01-1.352 1.523c-.583.365-1.255.547-2.015.547-1.146 0-2.076-.398-2.789-1.195-.709-.797-1.063-1.852-1.063-3.164v-.102zm1.453.172c0 .938.216 1.69.649 2.258.437.568 1.021.852 1.75.852.734 0 1.317-.287 1.75-.86.432-.578.648-1.385.648-2.422 0-.927-.221-1.677-.664-2.25-.437-.578-1.021-.867-1.75-.867-.713 0-1.289.284-1.727.852-.437.567-.656 1.38-.656 2.437zm7.672-.172c0-.828.162-1.573.484-2.234.329-.662.782-1.172 1.36-1.531.583-.36 1.247-.539 1.992-.539 1.151 0 2.081.398 2.789 1.195.714.797 1.07 1.857 1.07 3.18v.101c0 .823-.158 1.563-.476 2.219a3.557 3.557 0 01-1.352 1.523c-.583.365-1.255.547-2.015.547-1.146 0-2.076-.398-2.789-1.195-.709-.797-1.063-1.852-1.063-3.164v-.102zm1.453.172c0 .938.216 1.69.649 2.258.437.568 1.021.852 1.75.852.734 0 1.317-.287 1.75-.86.432-.578.648-1.385.648-2.422 0-.927-.221-1.677-.664-2.25-.437-.578-1.021-.867-1.75-.867-.713 0-1.289.284-1.726.852-.438.567-.657 1.38-.657 2.437zm12.141-3.023a4.276 4.276 0 00-.711-.055c-.948 0-1.591.404-1.93 1.211v6h-1.445v-8.453h1.406l.024.976c.474-.755 1.145-1.132 2.015-1.132.281 0 .495.036.641.109v1.344z" fill="#666"/></svg>